<?xml version="1.0" encoding="utf-8"?>
<!-- Generator: Adobe Illustrator 20.1.0, SVG Export Plug-In . SVG Version: 6.00 Build 0)  -->
<svg version="1.1" id="Layer_1" xmlns="http://www.w3.org/2000/svg" xmlns:xlink="http://www.w3.org/1999/xlink" x="0px" y="0px"
	 viewBox="0 0 136.1 136.1" style="enable-background:new 0 0 136.1 136.1;" xml:space="preserve">
<style type="text/css">
	.st0{display:none;fill:#FFFFFF;}
	.st1{fill:url(#SVGID_1_);}
</style>
<title>Asset 1</title>
<g id="Layer_2">
	<g id="Layer_1-2">
		<path class="st0" d="M35.5,0h65.1c19.6,0,35.5,15.9,35.5,35.5v65.1c0,19.6-15.9,35.5-35.5,35.5H35.5C15.9,136.1,0,120.2,0,100.6
			V35.5C0,15.9,15.9,0,35.5,0z"/>
		
			<linearGradient id="SVGID_1_" gradientUnits="userSpaceOnUse" x1="18.93" y1="67.98" x2="107.43" y2="67.98" gradientTransform="matrix(1 0 0 -1 0 136)">
			<stop  offset="0" style="stop-color:#00AADE"/>
			<stop  offset="1" style="stop-color:#00DEB4"/>
		</linearGradient>
		<path class="st1" d="M107.4,85.5L107.4,85.5c0,4.1-3.4,7.5-7.5,7.5l0,0c-5.4,0-6.6-5.3-14.7-5.3S75.9,93,70.5,93
			s-6.6-5.3-14.7-5.3S46.6,93,41.1,93c-4.1,0-7.5-3.4-7.5-7.5l0,0l0,0c0-4.1,3.4-7.5,7.5-7.5l0,0c5.5,0,6.6,5.3,14.7,5.3
			S65,78,70.5,78s6.6,5.3,14.7,5.3S94.4,78,99.9,78C104,78,107.4,81.4,107.4,85.5C107.4,85.5,107.4,85.5,107.4,85.5z M85.2,95.5
			c-5.4,0-6.6,5.3-14.7,5.3s-9.2-5.3-14.7-5.3c-4.1,0-7.5,3.4-7.5,7.5l0,0l0,0c0,4.1,3.4,7.5,7.5,7.5l0,0c5.5,0,6.6-5.3,14.7-5.3
			s9.2,5.3,14.7,5.3c4.1,0,7.5-3.4,7.5-7.5l0,0l0,0C92.7,98.9,89.3,95.6,85.2,95.5L85.2,95.5z M26.4,75.5c5.5,0,6.6-5.3,14.7-5.3
			s9.2,5.3,14.7,5.3c4.1,0,7.5-3.4,7.5-7.5l0,0c0-4.1-3.4-7.5-7.5-7.5c-5.5,0-6.6,5.3-14.7,5.3s-9.2-5.3-14.7-5.3
			c-4.1,0-7.5,3.4-7.5,7.5l0,0C18.9,72.2,22.3,75.5,26.4,75.5L26.4,75.5z M107.4,50.5L107.4,50.5c0-4.1-3.4-7.5-7.5-7.5
			c-5.4,0-6.6,5.3-14.7,5.3S75.9,43,70.5,43s-6.6,5.3-14.7,5.3S46.6,43,41.1,43c-4.1,0-7.5,3.4-7.5,7.5l0,0l0,0
			c0,4.1,3.4,7.5,7.5,7.5l0,0c5.5,0,6.6-5.3,14.7-5.3S65,58,70.5,58s6.6-5.3,14.7-5.3S94.4,58,99.9,58C104,58,107.4,54.7,107.4,50.5
			L107.4,50.5z M92.7,33L92.7,33c0-4.1-3.4-7.5-7.5-7.5c-5.4,0-6.6,5.4-14.7,5.4s-9.2-5.4-14.7-5.4c-4.1,0-7.5,3.3-7.5,7.5
			c0,0,0,0,0,0l0,0c0,4.1,3.4,7.5,7.5,7.5l0,0c5.5,0,6.6-5.3,14.7-5.3s9.2,5.3,14.7,5.3C89.3,40.5,92.7,37.2,92.7,33
			C92.7,33,92.7,33,92.7,33z"/>
	</g>
</g>
</svg>
